<?xml version="1.0" standalone="no"?>
<!DOCTYPE svg PUBLIC "-//W3C//DTD SVG 1.1//EN" "http://www.w3.org/Graphics/SVG/1.1/DTD/svg11.dtd" >
<svg xmlns="http://www.w3.org/2000/svg" xmlns:xlink="http://www.w3.org/1999/xlink" version="1.1">
<metadata>
Created by FontForge 20170910 at Wed Apr 18 14:25:16 2012
 By Jimmy Wärting
Copyright NAL 2012
</metadata>
<defs>
<font id="Vermin-Vibes" horiz-adv-x="576" >
  <font-face 
    font-family="Vermin Vibes"
    font-weight="400"
    font-stretch="normal"
    units-per-em="1024"
    panose-1="0 0 4 0 0 0 0 0 0 0"
    ascent="819"
    descent="-205"
    x-height="512"
    cap-height="512"
    bbox="-96 -320 1088 704"
    underline-thickness="51"
    underline-position="77"
    unicode-range="U+0020-FB02"
  />
<missing-glyph horiz-adv-x="704" 
d="M256 72v82h-82v-82h82zM337 167v82h-163v-82h163zM256 262v82h-82v-82h82zM337 357v81h-81q-34 0 -58 -23q-24 -24 -24 -58h163zM0 0v512h512v-512h-512z" />
    <glyph glyph-name=".notdef" horiz-adv-x="704" 
d="M256 72v82h-82v-82h82zM337 167v82h-163v-82h163zM256 262v82h-82v-82h82zM337 357v81h-81q-34 0 -58 -23q-24 -24 -24 -58h163zM0 0v512h512v-512h-512z" />
    <glyph glyph-name="glyph1" horiz-adv-x="32" 
 />
    <glyph glyph-name="glyph2" horiz-adv-x="256" 
 />
    <glyph glyph-name="space" unicode=" " horiz-adv-x="256" 
 />
    <glyph glyph-name="exclam" unicode="!" horiz-adv-x="192" 
d="M0 0v128h128v-128h-128zM0 192v320h128v-320h-128z" />
    <glyph glyph-name="quotedbl" unicode="&#x22;" horiz-adv-x="352" 
d="M0 384v256h128v-128l-128 -128v0zM160 384v256h128v-128l-128 -128v0z" />
    <glyph glyph-name="numbersign" unicode="#" 
d="M288 224v64h-64v-64h64zM96 0v96h-96v128h96v64h-96v128h96v96h128v-96h64v96h128v-96h96v-128h-96v-64h96v-128h-96v-96h-128v96h-64v-96h-128z" />
    <glyph glyph-name="dollar" unicode="$" 
d="M320 128l64 64h-64v-64v0zM192 320v64l-64 -64h64zM192 -128v128h-192v128h192v64h-192v192l128 128h64v128h128v-128h192v-128h-192v-64h192v-192l-128 -128h-64v-128h-128z" />
    <glyph glyph-name="percent" unicode="%" horiz-adv-x="768" 
d="M480 0v128h128v-128h-128zM96 384v128h128v-128h-128zM0 0l512 512h192l-512 -512h-192z" />
    <glyph glyph-name="ampersand" unicode="&#x26;" 
d="M0 0v512h384v-128h-256v-64h192v-128h-192v-64h384v-128h-512z" />
    <glyph glyph-name="quotesingle" unicode="'" horiz-adv-x="192" 
d="M0 384v256h128v-128l-128 -128v0z" />
    <glyph glyph-name="parenleft" unicode="(" horiz-adv-x="320" 
d="M128 0l-128 128v256l128 128h128v-128h-64l-64 -64v-128l64 -64h64v-128h-128z" />
    <glyph glyph-name="parenright" unicode=")" horiz-adv-x="320" 
d="M0 0v128h64l64 64v128l-64 64h-64v128h128l128 -128v-256l-128 -128h-128z" />
    <glyph glyph-name="asterisk" unicode="*" horiz-adv-x="768" 
d="M320 -192v288l-96 -96h-192l192 192h-160l-128 128h288l-96 96v192l192 -192v160l128 128v-288l96 96h192l-192 -192h160l128 -128h-288l96 -96v-192l-192 192v-160l-128 -128v0z" />
    <glyph glyph-name="plus" unicode="+" 
d="M192 0v192h-192v128h192v192h128v-192h192v-128h-192v-192h-128z" />
    <glyph glyph-name="comma" unicode="," horiz-adv-x="192" 
d="M0 -128v256h128v-128l-128 -128v0z" />
    <glyph glyph-name="hyphen" unicode="-" 
d="M0 192v128h512v-128h-512z" />
    <glyph glyph-name="period" unicode="." horiz-adv-x="192" 
d="M0 0v128h128v-128h-128z" />
    <glyph glyph-name="slash" unicode="/" horiz-adv-x="768" 
d="M0 0l512 512h192l-512 -512h-192z" />
    <glyph glyph-name="zero" unicode="0" 
d="M192 192v128h128v-128h-128zM384 128v256h-256v-256h256zM0 0v512h512v-512h-512z" />
    <glyph glyph-name="one" unicode="1" horiz-adv-x="192" 
d="M0 0v512h128v-512h-128z" />
    <glyph glyph-name="two" unicode="2" 
d="M0 0v320h384v64h-384v128h512v-320h-384v-64h384v-128h-512z" />
    <glyph glyph-name="three" unicode="3" 
d="M0 0v128h384v64h-384v128h384v64h-384v128h512v-512h-512z" />
    <glyph glyph-name="four" unicode="4" 
d="M384 0v192h-384v320h128v-192h256v192h128v-512h-128z" />
    <glyph glyph-name="five" unicode="5" 
d="M0 0v128h384v64h-384v320h512v-128h-384v-64h384v-320h-512z" />
    <glyph glyph-name="six" unicode="6" 
d="M384 128v64h-256v-64h256zM0 0v512h512v-128h-384v-64h384v-320h-512z" />
    <glyph glyph-name="seven" unicode="7" 
d="M0 -128v192l320 320h-320v128h512v-128l-512 -512v0z" />
    <glyph glyph-name="eight" unicode="8" 
d="M384 128v64h-256v-64h256zM384 320v64h-256v-64h256zM0 0v512h512v-512h-512z" />
    <glyph glyph-name="nine" unicode="9" 
d="M384 320v64h-256v-64h256zM0 0v128h384v64h-384v320h512v-512h-512z" />
    <glyph glyph-name="colon" unicode=":" horiz-adv-x="192" 
d="M0 96v128h128v-128h-128zM0 288v128h128v-128h-128z" />
    <glyph glyph-name="semicolon" unicode=";" horiz-adv-x="192" 
d="M0 -32v256h128v-128l-128 -128v0zM0 288v128h128v-128h-128z" />
    <glyph glyph-name="less" unicode="&#x3c;" horiz-adv-x="512" 
d="M256 0l-256 256l256 256h192l-256 -256l256 -256h-192z" />
    <glyph glyph-name="equal" unicode="=" horiz-adv-x="512" 
d="M0 96v128h448v-128h-448zM0 288v128h448v-128h-448z" />
    <glyph glyph-name="greater" unicode="&#x3e;" horiz-adv-x="512" 
d="M0 0l256 256l-256 256h192l256 -256l-256 -256h-192z" />
    <glyph glyph-name="question" unicode="?" 
d="M192 0v128h128v-128h-128zM192 192v128h192v64h-384v128h512v-320h-320z" />
    <glyph glyph-name="at" unicode="@" 
d="M0 0v512h512v-352h-352v192h192v-64h32v96h-256v-256h384v-128h-512z" />
    <glyph glyph-name="A" unicode="A" 
d="M0 -128v640h512v-512h-128v384h-256v-192l128 128l96 -96l-352 -352v0z" />
    <glyph glyph-name="B" unicode="B" 
d="M0 -320v192l320 320h-192l192 192h-192v-384h-128v512h512v-128l-64 -64h64v-128l-512 -512v0z" />
    <glyph glyph-name="C" unicode="C" 
d="M128 0l-128 128v384h512v-128h-384v-192l64 -64h320v-128h-384z" />
    <glyph glyph-name="D" unicode="D" 
d="M384 128v192l-64 64h-192v-256h256zM0 0v512h384l128 -128v-384h-512z" />
    <glyph glyph-name="E" unicode="E" 
d="M0 0v128h512v-128h-512zM0 192v128h512v-128h-512zM0 384v128h512v-128h-512z" />
    <glyph glyph-name="F" unicode="F" 
d="M0 -192v704h512v-128h-384v-64h384l-128 -128h-256v-256l-128 -128v0z" />
    <glyph glyph-name="G" unicode="G" 
d="M0 0v384l128 128h384l-128 -128h-192l-64 -64v-192h256v64h-224l128 128h224v-320h-512z" />
    <glyph glyph-name="H" unicode="H" 
d="M0 -192v704h128v-192h256v256l128 128v-704h-128v192h-256v-256l-128 -128v0z" />
    <glyph glyph-name="I" unicode="I" horiz-adv-x="192" 
d="M0 0v384l128 128v-384l-128 -128v0z" />
    <glyph glyph-name="J" unicode="J" 
d="M0 -320v512h128v-192l256 256v256h128v-320l-512 -512v0z" />
    <glyph glyph-name="K" unicode="K" 
d="M576 -192l-384 384l-64 -64v-128h-128v512h128v-192l384 384v-192l-224 -224l288 -288v-192v0z" />
    <glyph glyph-name="L" unicode="L" horiz-adv-x="512" 
d="M0 0v512h128v-384h320v-128h-448z" />
    <glyph glyph-name="M" unicode="M" 
d="M0 0v512l256 -256l256 256v-512h-128v192l-128 -128l-128 128v-192h-128z" />
    <glyph glyph-name="N" unicode="N" 
d="M512 -96l-384 384v-288h-128v608l384 -384v288h128v-608v0z" />
    <glyph glyph-name="O" unicode="O" 
d="M384 128v256h-256v-256h256zM0 0v512h512v-512h-512z" />
    <glyph glyph-name="P" unicode="P" 
d="M256 320l64 64h-192v-64h128zM0 0v512h640l-320 -320h-192v-192h-128z" />
    <glyph glyph-name="Q" unicode="Q" 
d="M384 128v256h-256v-192l64 -64h192zM448 -320l-448 448v384h512v-512h-192l128 -128v-192v0z" />
    <glyph glyph-name="R" unicode="R" 
d="M576 -256l-448 448l192 192h-192v-384h-128v512h512v-128l-192 -192l256 -256v-192v0z" />
    <glyph glyph-name="S" unicode="S" 
d="M-96 0l128 128h288l64 64h-384v192l128 128h480l-128 -128h-288l-64 -64h384v-192l-128 -128h-480z" />
    <glyph glyph-name="T" unicode="T" horiz-adv-x="448" 
d="M128 -192v576h-224l128 128h96v64l128 128v-192h224l-128 -128h-96v-448l-128 -128v0z" />
    <glyph glyph-name="U" unicode="U" 
d="M0 0v512h128v-384h192l64 64v320h128v-384l-128 -128h-384z" />
    <glyph glyph-name="V" unicode="V" 
d="M0 -192v704h128v-384l384 384v-192l-512 -512v0z" />
    <glyph glyph-name="W" unicode="W" 
d="M0 0v512h128v-192l128 128l128 -128v192h128v-512l-256 256l-256 -256v0z" />
    <glyph glyph-name="X" unicode="X" 
d="M512 -96l-256 256l-160 -160h-192l256 256l-160 160v192l256 -256l160 160h192l-256 -256l160 -160v-192v0z" />
    <glyph glyph-name="Y" unicode="Y" 
d="M192 -192v416l-192 192v192l256 -256l160 160h192l-288 -288v-288l-128 -128v0z" />
    <glyph glyph-name="Z" unicode="Z" 
d="M-96 0l384 384h-288v128h608l-384 -384h288v-128h-608z" />
    <glyph glyph-name="bracketleft" unicode="[" horiz-adv-x="320" 
d="M0 0v512h256v-128h-128v-256h128v-128h-256z" />
    <glyph glyph-name="backslash" unicode="\" horiz-adv-x="768" 
d="M512 0l-512 512h192l512 -512h-192z" />
    <glyph glyph-name="bracketright" unicode="]" horiz-adv-x="320" 
d="M0 0v128h128v256h-128v128h256v-512h-256z" />
    <glyph glyph-name="asciicircum" unicode="^" 
d="M0 64v192l256 256l256 -256v-192l-256 256l-256 -256v0z" />
    <glyph glyph-name="underscore" unicode="_" horiz-adv-x="512" 
d="M0 0v128h448v-128h-448z" />
    <glyph glyph-name="grave" unicode="`" horiz-adv-x="192" 
d="M128 384l-128 128v128h128v-256v0z" />
    <glyph glyph-name="a" unicode="a" 
d="M0 -128v640h512v-512h-128v384h-256v-192l128 128l96 -96l-352 -352v0z" />
    <glyph glyph-name="b" unicode="b" 
d="M0 -320v192l320 320h-192l192 192h-192v-384h-128v512h512v-128l-64 -64h64v-128l-512 -512v0z" />
    <glyph glyph-name="c" unicode="c" 
d="M128 0l-128 128v384h512v-128h-384v-192l64 -64h320v-128h-384z" />
    <glyph glyph-name="d" unicode="d" 
d="M384 128v192l-64 64h-192v-256h256zM0 0v512h384l128 -128v-384h-512z" />
    <glyph glyph-name="e" unicode="e" 
d="M0 0v128h512v-128h-512zM0 192v128h512v-128h-512zM0 384v128h512v-128h-512z" />
    <glyph glyph-name="f" unicode="f" 
d="M0 -192v704h512v-128h-384v-64h384l-128 -128h-256v-256l-128 -128v0z" />
    <glyph glyph-name="g" unicode="g" 
d="M0 0v384l128 128h384l-128 -128h-192l-64 -64v-192h256v64h-224l128 128h224v-320h-512z" />
    <glyph glyph-name="h" unicode="h" 
d="M0 0v512h128v-192h256v192h128v-512h-128v192h-256v-192h-128z" />
    <glyph glyph-name="i" unicode="i" horiz-adv-x="192" 
d="M0 0v512h128v-512h-128z" />
    <glyph glyph-name="j" unicode="j" 
d="M0 -320v512h128v-192l256 256v256h128v-320l-512 -512v0z" />
    <glyph glyph-name="k" unicode="k" 
d="M576 -192l-384 384l-64 -64v-128h-128v512h128v-192l384 384v-192l-224 -224l288 -288v-192v0z" />
    <glyph glyph-name="l" unicode="l" horiz-adv-x="512" 
d="M0 0v512h128v-384h320v-128h-448z" />
    <glyph glyph-name="m" unicode="m" 
d="M0 0v512l256 -256l256 256v-512h-128v192l-128 -128l-128 128v-192h-128z" />
    <glyph glyph-name="n" unicode="n" 
d="M512 -96l-384 384v-288h-128v608l384 -384v288h128v-608v0z" />
    <glyph glyph-name="o" unicode="o" 
d="M384 128v256h-256v-256h256zM0 0v512h512v-512h-512z" />
    <glyph glyph-name="p" unicode="p" 
d="M256 320l64 64h-192v-64h128zM0 0v512h640l-320 -320h-192v-192h-128z" />
    <glyph glyph-name="q" unicode="q" 
d="M384 128v256h-256v-192l64 -64h192zM448 -320l-448 448v384h512v-512h-192l128 -128v-192v0z" />
    <glyph glyph-name="r" unicode="r" 
d="M576 -256l-448 448l192 192h-192v-384h-128v512h512v-128l-192 -192l256 -256v-192v0z" />
    <glyph glyph-name="s" unicode="s" 
d="M-96 0l128 128h288l64 64h-384v192l128 128h480l-128 -128h-288l-64 -64h384v-192l-128 -128h-480z" />
    <glyph glyph-name="t" unicode="t" 
d="M192 0v384h-192v128h512v-128h-192v-384h-128z" />
    <glyph glyph-name="u" unicode="u" 
d="M0 0v512h128v-384h192l64 64v320h128v-384l-128 -128h-384z" />
    <glyph glyph-name="v" unicode="v" 
d="M0 -192v704h128v-384l384 384v-192l-512 -512v0z" />
    <glyph glyph-name="w" unicode="w" 
d="M0 0v512h128v-192l128 128l128 -128v192h128v-512l-256 256l-256 -256v0z" />
    <glyph glyph-name="x" unicode="x" 
d="M512 -96l-256 256l-160 -160h-192l256 256l-160 160v192l256 -256l160 160h192l-256 -256l160 -160v-192v0z" />
    <glyph glyph-name="y" unicode="y" 
d="M192 -192v416l-192 192v192l256 -256l160 160h192l-288 -288v-288l-128 -128v0z" />
    <glyph glyph-name="z" unicode="z" 
d="M-96 0l384 384h-288v128h608l-384 -384h288v-128h-608z" />
    <glyph glyph-name="braceleft" unicode="{" horiz-adv-x="384" 
d="M192 0l-128 128v64h-64v128h64v64l128 128h128v-128h-64l-64 -64v-32l-32 -32l32 -32v-32l64 -64h64v-128h-128z" />
    <glyph glyph-name="bar" unicode="|" horiz-adv-x="192" 
d="M0 0v512h128v-512h-128z" />
    <glyph glyph-name="braceright" unicode="}" horiz-adv-x="384" 
d="M0 0v128h64l64 64v32l32 32l-32 32v32l-64 64h-64v128h128l128 -128v-64h64v-128h-64v-64l-128 -128h-128z" />
    <glyph glyph-name="asciitilde" unicode="~" 
d="M0 192v96h96l32 32h128l32 -32h64l32 32h128v-96h-96l-32 -32h-128l-32 32h-64l-32 -32h-128z" />
    <glyph glyph-name="exclamdown" unicode="&#xa1;" horiz-adv-x="1152" 
d="M640 0v64h64v-64h-64zM352 64l-32 32l-32 -32h64zM1024 32v96h-32v-96h32zM0 0v160h64l96 -96v96h64v-96l96 96l96 -96v96h64v-128h128v-32h-192l-32 32h-128l-32 -32h-64l-96 96v-96h-64zM736 0v32h96v32h-96v96h160v-32h-96v-32h96v-96h-160zM928 0v160h160v-160h-160z
" />
    <glyph glyph-name="cent" unicode="&#xa2;" 
d="M192 -128v128h-64l-128 128v384h192v128h128v-128h192v-128h-384v-192l64 -64h320v-128h-192v-128h-128z" />
    <glyph glyph-name="sterling" unicode="&#xa3;" 
d="M0 0v128h64v64h-64v128h64v192h448v-128h-320v-64h320v-128h-320v-64h320v-128h-512z" />
    <glyph glyph-name="currency" unicode="&#xa4;" horiz-adv-x="1152" 
d="M640 0v64h64v-64h-64zM352 64l-32 32l-32 -32h64zM1024 32v96h-32v-96h32zM0 0v160h64l96 -96v96h64v-96l96 96l96 -96v96h64v-128h128v-32h-192l-32 32h-128l-32 -32h-64l-96 96v-96h-64zM736 0v32h96v32h-96v96h160v-32h-96v-32h96v-96h-160zM928 0v160h160v-160h-160z
" />
    <glyph glyph-name="yen" unicode="&#xa5;" 
d="M192 -192v256h-128v128h128v32l-192 192v192l256 -256l160 160h192l-288 -288v-32h128v-128h-128v-128l-128 -128v0z" />
    <glyph glyph-name="brokenbar" unicode="&#xa6;" horiz-adv-x="1152" 
d="M640 0v64h64v-64h-64zM352 64l-32 32l-32 -32h64zM1024 32v96h-32v-96h32zM0 0v160h64l96 -96v96h64v-96l96 96l96 -96v96h64v-128h128v-32h-192l-32 32h-128l-32 -32h-64l-96 96v-96h-64zM736 0v32h96v32h-96v96h160v-32h-96v-32h96v-96h-160zM928 0v160h160v-160h-160z
" />
    <glyph glyph-name="section" unicode="&#xa7;" horiz-adv-x="1152" 
d="M640 0v64h64v-64h-64zM352 64l-32 32l-32 -32h64zM1024 32v96h-32v-96h32zM0 0v160h64l96 -96v96h64v-96l96 96l96 -96v96h64v-128h128v-32h-192l-32 32h-128l-32 -32h-64l-96 96v-96h-64zM736 0v32h96v32h-96v96h160v-32h-96v-32h96v-96h-160zM928 0v160h160v-160h-160z
" />
    <glyph glyph-name="dieresis" unicode="&#xa8;" horiz-adv-x="1152" 
d="M640 0v64h64v-64h-64zM352 64l-32 32l-32 -32h64zM1024 32v96h-32v-96h32zM0 0v160h64l96 -96v96h64v-96l96 96l96 -96v96h64v-128h128v-32h-192l-32 32h-128l-32 -32h-64l-96 96v-96h-64zM736 0v32h96v32h-96v96h160v-32h-96v-32h96v-96h-160zM928 0v160h160v-160h-160z
" />
    <glyph glyph-name="copyright" unicode="&#xa9;" 
d="M384 128v256h-256v-256h256zM0 0v512h512v-512h-512z" />
    <glyph glyph-name="ordfeminine" unicode="&#xaa;" horiz-adv-x="1152" 
d="M640 0v64h64v-64h-64zM352 64l-32 32l-32 -32h64zM1024 32v96h-32v-96h32zM0 0v160h64l96 -96v96h64v-96l96 96l96 -96v96h64v-128h128v-32h-192l-32 32h-128l-32 -32h-64l-96 96v-96h-64zM736 0v32h96v32h-96v96h160v-32h-96v-32h96v-96h-160zM928 0v160h160v-160h-160z
" />
    <glyph glyph-name="guillemotleft" unicode="&#xab;" horiz-adv-x="1152" 
d="M640 0v64h64v-64h-64zM352 64l-32 32l-32 -32h64zM1024 32v96h-32v-96h32zM0 0v160h64l96 -96v96h64v-96l96 96l96 -96v96h64v-128h128v-32h-192l-32 32h-128l-32 -32h-64l-96 96v-96h-64zM736 0v32h96v32h-96v96h160v-32h-96v-32h96v-96h-160zM928 0v160h160v-160h-160z
" />
    <glyph glyph-name="logicalnot" unicode="&#xac;" horiz-adv-x="1152" 
d="M640 0v64h64v-64h-64zM352 64l-32 32l-32 -32h64zM1024 32v96h-32v-96h32zM0 0v160h64l96 -96v96h64v-96l96 96l96 -96v96h64v-128h128v-32h-192l-32 32h-128l-32 -32h-64l-96 96v-96h-64zM736 0v32h96v32h-96v96h160v-32h-96v-32h96v-96h-160zM928 0v160h160v-160h-160z
" />
    <glyph glyph-name="uni00AD" unicode="&#xad;" horiz-adv-x="1152" 
d="M640 0v64h64v-64h-64zM352 64l-32 32l-32 -32h64zM1024 32v96h-32v-96h32zM0 0v160h64l96 -96v96h64v-96l96 96l96 -96v96h64v-128h128v-32h-192l-32 32h-128l-32 -32h-64l-96 96v-96h-64zM736 0v32h96v32h-96v96h160v-32h-96v-32h96v-96h-160zM928 0v160h160v-160h-160z
" />
    <glyph glyph-name="registered" unicode="&#xae;" 
d="M384 128v256h-256v-256h256zM0 0v512h512v-512h-512z" />
    <glyph glyph-name="macron" unicode="&#xaf;" horiz-adv-x="1152" 
d="M640 0v64h64v-64h-64zM352 64l-32 32l-32 -32h64zM1024 32v96h-32v-96h32zM0 0v160h64l96 -96v96h64v-96l96 96l96 -96v96h64v-128h128v-32h-192l-32 32h-128l-32 -32h-64l-96 96v-96h-64zM736 0v32h96v32h-96v96h160v-32h-96v-32h96v-96h-160zM928 0v160h160v-160h-160z
" />
    <glyph glyph-name="degree" unicode="&#xb0;" horiz-adv-x="1152" 
d="M640 0v64h64v-64h-64zM352 64l-32 32l-32 -32h64zM1024 32v96h-32v-96h32zM0 0v160h64l96 -96v96h64v-96l96 96l96 -96v96h64v-128h128v-32h-192l-32 32h-128l-32 -32h-64l-96 96v-96h-64zM736 0v32h96v32h-96v96h160v-32h-96v-32h96v-96h-160zM928 0v160h160v-160h-160z
" />
    <glyph glyph-name="plusminus" unicode="&#xb1;" horiz-adv-x="1152" 
d="M640 0v64h64v-64h-64zM352 64l-32 32l-32 -32h64zM1024 32v96h-32v-96h32zM0 0v160h64l96 -96v96h64v-96l96 96l96 -96v96h64v-128h128v-32h-192l-32 32h-128l-32 -32h-64l-96 96v-96h-64zM736 0v32h96v32h-96v96h160v-32h-96v-32h96v-96h-160zM928 0v160h160v-160h-160z
" />
    <glyph glyph-name="uni00B2" unicode="&#xb2;" horiz-adv-x="1152" 
d="M640 0v64h64v-64h-64zM352 64l-32 32l-32 -32h64zM1024 32v96h-32v-96h32zM0 0v160h64l96 -96v96h64v-96l96 96l96 -96v96h64v-128h128v-32h-192l-32 32h-128l-32 -32h-64l-96 96v-96h-64zM736 0v32h96v32h-96v96h160v-32h-96v-32h96v-96h-160zM928 0v160h160v-160h-160z
" />
    <glyph glyph-name="uni00B3" unicode="&#xb3;" horiz-adv-x="1152" 
d="M640 0v64h64v-64h-64zM352 64l-32 32l-32 -32h64zM1024 32v96h-32v-96h32zM0 0v160h64l96 -96v96h64v-96l96 96l96 -96v96h64v-128h128v-32h-192l-32 32h-128l-32 -32h-64l-96 96v-96h-64zM736 0v32h96v32h-96v96h160v-32h-96v-32h96v-96h-160zM928 0v160h160v-160h-160z
" />
    <glyph glyph-name="acute" unicode="&#xb4;" horiz-adv-x="1152" 
d="M640 0v64h64v-64h-64zM352 64l-32 32l-32 -32h64zM1024 32v96h-32v-96h32zM0 0v160h64l96 -96v96h64v-96l96 96l96 -96v96h64v-128h128v-32h-192l-32 32h-128l-32 -32h-64l-96 96v-96h-64zM736 0v32h96v32h-96v96h160v-32h-96v-32h96v-96h-160zM928 0v160h160v-160h-160z
" />
    <glyph glyph-name="mu" unicode="&#xb5;" horiz-adv-x="1152" 
d="M640 0v64h64v-64h-64zM352 64l-32 32l-32 -32h64zM1024 32v96h-32v-96h32zM0 0v160h64l96 -96v96h64v-96l96 96l96 -96v96h64v-128h128v-32h-192l-32 32h-128l-32 -32h-64l-96 96v-96h-64zM736 0v32h96v32h-96v96h160v-32h-96v-32h96v-96h-160zM928 0v160h160v-160h-160z
" />
    <glyph glyph-name="paragraph" unicode="&#xb6;" horiz-adv-x="1152" 
d="M640 0v64h64v-64h-64zM352 64l-32 32l-32 -32h64zM1024 32v96h-32v-96h32zM0 0v160h64l96 -96v96h64v-96l96 96l96 -96v96h64v-128h128v-32h-192l-32 32h-128l-32 -32h-64l-96 96v-96h-64zM736 0v32h96v32h-96v96h160v-32h-96v-32h96v-96h-160zM928 0v160h160v-160h-160z
" />
    <glyph glyph-name="periodcentered" unicode="&#xb7;" horiz-adv-x="1152" 
d="M640 0v64h64v-64h-64zM352 64l-32 32l-32 -32h64zM1024 32v96h-32v-96h32zM0 0v160h64l96 -96v96h64v-96l96 96l96 -96v96h64v-128h128v-32h-192l-32 32h-128l-32 -32h-64l-96 96v-96h-64zM736 0v32h96v32h-96v96h160v-32h-96v-32h96v-96h-160zM928 0v160h160v-160h-160z
" />
    <glyph glyph-name="cedilla" unicode="&#xb8;" horiz-adv-x="1152" 
d="M640 0v64h64v-64h-64zM352 64l-32 32l-32 -32h64zM1024 32v96h-32v-96h32zM0 0v160h64l96 -96v96h64v-96l96 96l96 -96v96h64v-128h128v-32h-192l-32 32h-128l-32 -32h-64l-96 96v-96h-64zM736 0v32h96v32h-96v96h160v-32h-96v-32h96v-96h-160zM928 0v160h160v-160h-160z
" />
    <glyph glyph-name="uni00B9" unicode="&#xb9;" horiz-adv-x="1152" 
d="M640 0v64h64v-64h-64zM352 64l-32 32l-32 -32h64zM1024 32v96h-32v-96h32zM0 0v160h64l96 -96v96h64v-96l96 96l96 -96v96h64v-128h128v-32h-192l-32 32h-128l-32 -32h-64l-96 96v-96h-64zM736 0v32h96v32h-96v96h160v-32h-96v-32h96v-96h-160zM928 0v160h160v-160h-160z
" />
    <glyph glyph-name="ordmasculine" unicode="&#xba;" horiz-adv-x="1152" 
d="M640 0v64h64v-64h-64zM352 64l-32 32l-32 -32h64zM1024 32v96h-32v-96h32zM0 0v160h64l96 -96v96h64v-96l96 96l96 -96v96h64v-128h128v-32h-192l-32 32h-128l-32 -32h-64l-96 96v-96h-64zM736 0v32h96v32h-96v96h160v-32h-96v-32h96v-96h-160zM928 0v160h160v-160h-160z
" />
    <glyph glyph-name="guillemotright" unicode="&#xbb;" horiz-adv-x="1152" 
d="M640 0v64h64v-64h-64zM352 64l-32 32l-32 -32h64zM1024 32v96h-32v-96h32zM0 0v160h64l96 -96v96h64v-96l96 96l96 -96v96h64v-128h128v-32h-192l-32 32h-128l-32 -32h-64l-96 96v-96h-64zM736 0v32h96v32h-96v96h160v-32h-96v-32h96v-96h-160zM928 0v160h160v-160h-160z
" />
    <glyph glyph-name="onequarter" unicode="&#xbc;" horiz-adv-x="1152" 
d="M640 0v64h64v-64h-64zM352 64l-32 32l-32 -32h64zM1024 32v96h-32v-96h32zM0 0v160h64l96 -96v96h64v-96l96 96l96 -96v96h64v-128h128v-32h-192l-32 32h-128l-32 -32h-64l-96 96v-96h-64zM736 0v32h96v32h-96v96h160v-32h-96v-32h96v-96h-160zM928 0v160h160v-160h-160z
" />
    <glyph glyph-name="onehalf" unicode="&#xbd;" horiz-adv-x="1152" 
d="M640 0v64h64v-64h-64zM352 64l-32 32l-32 -32h64zM1024 32v96h-32v-96h32zM0 0v160h64l96 -96v96h64v-96l96 96l96 -96v96h64v-128h128v-32h-192l-32 32h-128l-32 -32h-64l-96 96v-96h-64zM736 0v32h96v32h-96v96h160v-32h-96v-32h96v-96h-160zM928 0v160h160v-160h-160z
" />
    <glyph glyph-name="threequarters" unicode="&#xbe;" horiz-adv-x="1152" 
d="M640 0v64h64v-64h-64zM352 64l-32 32l-32 -32h64zM1024 32v96h-32v-96h32zM0 0v160h64l96 -96v96h64v-96l96 96l96 -96v96h64v-128h128v-32h-192l-32 32h-128l-32 -32h-64l-96 96v-96h-64zM736 0v32h96v32h-96v96h160v-32h-96v-32h96v-96h-160zM928 0v160h160v-160h-160z
" />
    <glyph glyph-name="questiondown" unicode="&#xbf;" horiz-adv-x="1152" 
d="M640 0v64h64v-64h-64zM352 64l-32 32l-32 -32h64zM1024 32v96h-32v-96h32zM0 0v160h64l96 -96v96h64v-96l96 96l96 -96v96h64v-128h128v-32h-192l-32 32h-128l-32 -32h-64l-96 96v-96h-64zM736 0v32h96v32h-96v96h160v-32h-96v-32h96v-96h-160zM928 0v160h160v-160h-160z
" />
    <glyph glyph-name="Agrave" unicode="&#xc0;" 
d="M0 -128v640h512v-512h-128v384h-256v-192l128 128l96 -96l-352 -352v0z" />
    <glyph glyph-name="Aacute" unicode="&#xc1;" 
d="M0 -128v640h512v-512h-128v384h-256v-192l128 128l96 -96l-352 -352v0z" />
    <glyph glyph-name="Acircumflex" unicode="&#xc2;" 
d="M0 -128v640h512v-512h-128v384h-256v-192l128 128l96 -96l-352 -352v0z" />
    <glyph glyph-name="Atilde" unicode="&#xc3;" 
d="M0 -128v640h512v-512h-128v384h-256v-192l128 128l96 -96l-352 -352v0z" />
    <glyph glyph-name="Adieresis" unicode="&#xc4;" 
d="M0 -128v640h512v-512h-128v384h-256v-192l128 128l96 -96l-352 -352v0z" />
    <glyph glyph-name="Aring" unicode="&#xc5;" 
d="M0 -128v640h512v-512h-128v384h-256v-192l128 128l96 -96l-352 -352v0z" />
    <glyph glyph-name="AE" unicode="&#xc6;" horiz-adv-x="960" 
d="M384 0v128h512v-128h-512zM384 192v128h512v-128h-512zM0 -128v640h896v-128h-768v-192l128 128l96 -96l-352 -352v0z" />
    <glyph glyph-name="Ccedilla" unicode="&#xc7;" 
d="M128 0l-128 128v384h512v-128h-384v-192l64 -64h320v-128h-384z" />
    <glyph glyph-name="Egrave" unicode="&#xc8;" 
d="M0 0v128h512v-128h-512zM0 192v128h512v-128h-512zM0 384v128h512v-128h-512z" />
    <glyph glyph-name="Eacute" unicode="&#xc9;" 
d="M0 0v128h512v-128h-512zM0 192v128h512v-128h-512zM0 384v128h512v-128h-512z" />
    <glyph glyph-name="Ecircumflex" unicode="&#xca;" 
d="M0 0v128h512v-128h-512zM0 192v128h512v-128h-512zM0 384v128h512v-128h-512z" />
    <glyph glyph-name="Edieresis" unicode="&#xcb;" 
d="M0 0v128h512v-128h-512zM0 192v128h512v-128h-512zM0 384v128h512v-128h-512z" />
    <glyph glyph-name="Igrave" unicode="&#xcc;" horiz-adv-x="192" 
d="M0 0v384l128 128v-384l-128 -128v0z" />
    <glyph glyph-name="Iacute" unicode="&#xcd;" horiz-adv-x="192" 
d="M0 0v384l128 128v-384l-128 -128v0z" />
    <glyph glyph-name="Icircumflex" unicode="&#xce;" horiz-adv-x="192" 
d="M0 0v384l128 128v-384l-128 -128v0z" />
    <glyph glyph-name="Idieresis" unicode="&#xcf;" horiz-adv-x="192" 
d="M0 0v384l128 128v-384l-128 -128v0z" />
    <glyph glyph-name="Eth" unicode="&#xd0;" horiz-adv-x="1152" 
d="M640 0v64h64v-64h-64zM352 64l-32 32l-32 -32h64zM1024 32v96h-32v-96h32zM0 0v160h64l96 -96v96h64v-96l96 96l96 -96v96h64v-128h128v-32h-192l-32 32h-128l-32 -32h-64l-96 96v-96h-64zM736 0v32h96v32h-96v96h160v-32h-96v-32h96v-96h-160zM928 0v160h160v-160h-160z
" />
    <glyph glyph-name="Ntilde" unicode="&#xd1;" 
d="M512 -96l-384 384v-288h-128v608l384 -384v288h128v-608v0z" />
    <glyph glyph-name="Ograve" unicode="&#xd2;" 
d="M384 128v256h-256v-256h256zM0 0v512h512v-512h-512z" />
    <glyph glyph-name="Oacute" unicode="&#xd3;" 
d="M384 128v256h-256v-256h256zM0 0v512h512v-512h-512z" />
    <glyph glyph-name="Ocircumflex" unicode="&#xd4;" 
d="M384 128v256h-256v-256h256zM0 0v512h512v-512h-512z" />
    <glyph glyph-name="Otilde" unicode="&#xd5;" 
d="M384 128v256h-256v-256h256zM0 0v512h512v-512h-512z" />
    <glyph glyph-name="Odieresis" unicode="&#xd6;" 
d="M384 128v256h-256v-256h256zM0 0v512h512v-512h-512z" />
    <glyph glyph-name="multiply" unicode="&#xd7;" horiz-adv-x="1152" 
d="M640 0v64h64v-64h-64zM352 64l-32 32l-32 -32h64zM1024 32v96h-32v-96h32zM0 0v160h64l96 -96v96h64v-96l96 96l96 -96v96h64v-128h128v-32h-192l-32 32h-128l-32 -32h-64l-96 96v-96h-64zM736 0v32h96v32h-96v96h160v-32h-96v-32h96v-96h-160zM928 0v160h160v-160h-160z
" />
    <glyph glyph-name="Oslash" unicode="&#xd8;" 
d="M384 128v256h-256v-256h256zM0 0v512h512v-512h-512z" />
    <glyph glyph-name="Ugrave" unicode="&#xd9;" 
d="M0 0v512h128v-384h192l64 64v320h128v-384l-128 -128h-384z" />
    <glyph glyph-name="Uacute" unicode="&#xda;" 
d="M0 0v512h128v-384h192l64 64v320h128v-384l-128 -128h-384z" />
    <glyph glyph-name="Ucircumflex" unicode="&#xdb;" 
d="M0 0v512h128v-384h192l64 64v320h128v-384l-128 -128h-384z" />
    <glyph glyph-name="Udieresis" unicode="&#xdc;" 
d="M0 0v512h128v-384h192l64 64v320h128v-384l-128 -128h-384z" />
    <glyph glyph-name="Yacute" unicode="&#xdd;" horiz-adv-x="672" 
d="M192 -192v416l-192 192v192l256 -256l160 160h192l-288 -288v-288l-128 -128v0z" />
    <glyph glyph-name="Thorn" unicode="&#xde;" horiz-adv-x="1152" 
d="M640 0v64h64v-64h-64zM352 64l-32 32l-32 -32h64zM1024 32v96h-32v-96h32zM0 0v160h64l96 -96v96h64v-96l96 96l96 -96v96h64v-128h128v-32h-192l-32 32h-128l-32 -32h-64l-96 96v-96h-64zM736 0v32h96v32h-96v96h160v-32h-96v-32h96v-96h-160zM928 0v160h160v-160h-160z
" />
    <glyph glyph-name="germandbls" unicode="&#xdf;" horiz-adv-x="1152" 
d="M640 0v64h64v-64h-64zM352 64l-32 32l-32 -32h64zM1024 32v96h-32v-96h32zM0 0v160h64l96 -96v96h64v-96l96 96l96 -96v96h64v-128h128v-32h-192l-32 32h-128l-32 -32h-64l-96 96v-96h-64zM736 0v32h96v32h-96v96h160v-32h-96v-32h96v-96h-160zM928 0v160h160v-160h-160z
" />
    <glyph glyph-name="agrave" unicode="&#xe0;" 
d="M0 -128v640h512v-512h-128v384h-256v-192l128 128l96 -96l-352 -352v0z" />
    <glyph glyph-name="aacute" unicode="&#xe1;" 
d="M0 -128v640h512v-512h-128v384h-256v-192l128 128l96 -96l-352 -352v0z" />
    <glyph glyph-name="acircumflex" unicode="&#xe2;" 
d="M0 -128v640h512v-512h-128v384h-256v-192l128 128l96 -96l-352 -352v0z" />
    <glyph glyph-name="atilde" unicode="&#xe3;" 
d="M0 -128v640h512v-512h-128v384h-256v-192l128 128l96 -96l-352 -352v0z" />
    <glyph glyph-name="adieresis" unicode="&#xe4;" 
d="M0 -128v640h512v-512h-128v384h-256v-192l128 128l96 -96l-352 -352v0z" />
    <glyph glyph-name="aring" unicode="&#xe5;" 
d="M0 -128v640h512v-512h-128v384h-256v-192l128 128l96 -96l-352 -352v0z" />
    <glyph glyph-name="ae" unicode="&#xe6;" horiz-adv-x="960" 
d="M384 0v128h512v-128h-512zM384 192v128h512v-128h-512zM0 -128v640h896v-128h-768v-192l128 128l96 -96l-352 -352v0z" />
    <glyph glyph-name="ccedilla" unicode="&#xe7;" 
d="M128 0l-128 128v384h512v-128h-384v-192l64 -64h320v-128h-384z" />
    <glyph glyph-name="egrave" unicode="&#xe8;" 
d="M0 0v128h512v-128h-512zM0 192v128h512v-128h-512zM0 384v128h512v-128h-512z" />
    <glyph glyph-name="eacute" unicode="&#xe9;" 
d="M0 0v128h512v-128h-512zM0 192v128h512v-128h-512zM0 384v128h512v-128h-512z" />
    <glyph glyph-name="ecircumflex" unicode="&#xea;" 
d="M0 0v128h512v-128h-512zM0 192v128h512v-128h-512zM0 384v128h512v-128h-512z" />
    <glyph glyph-name="edieresis" unicode="&#xeb;" 
d="M0 0v128h512v-128h-512zM0 192v128h512v-128h-512zM0 384v128h512v-128h-512z" />
    <glyph glyph-name="igrave" unicode="&#xec;" horiz-adv-x="192" 
d="M0 0v512h128v-512h-128z" />
    <glyph glyph-name="iacute" unicode="&#xed;" horiz-adv-x="192" 
d="M0 0v512h128v-512h-128z" />
    <glyph glyph-name="icircumflex" unicode="&#xee;" horiz-adv-x="192" 
d="M0 0v512h128v-512h-128z" />
    <glyph glyph-name="idieresis" unicode="&#xef;" horiz-adv-x="192" 
d="M0 0v512h128v-512h-128z" />
    <glyph glyph-name="eth" unicode="&#xf0;" horiz-adv-x="1152" 
d="M640 0v64h64v-64h-64zM352 64l-32 32l-32 -32h64zM1024 32v96h-32v-96h32zM0 0v160h64l96 -96v96h64v-96l96 96l96 -96v96h64v-128h128v-32h-192l-32 32h-128l-32 -32h-64l-96 96v-96h-64zM736 0v32h96v32h-96v96h160v-32h-96v-32h96v-96h-160zM928 0v160h160v-160h-160z
" />
    <glyph glyph-name="ntilde" unicode="&#xf1;" 
d="M512 -96l-384 384v-288h-128v608l384 -384v288h128v-608v0z" />
    <glyph glyph-name="ograve" unicode="&#xf2;" 
d="M384 128v256h-256v-256h256zM0 0v512h512v-512h-512z" />
    <glyph glyph-name="oacute" unicode="&#xf3;" 
d="M384 128v256h-256v-256h256zM0 0v512h512v-512h-512z" />
    <glyph glyph-name="ocircumflex" unicode="&#xf4;" 
d="M384 128v256h-256v-256h256zM0 0v512h512v-512h-512z" />
    <glyph glyph-name="otilde" unicode="&#xf5;" 
d="M384 128v256h-256v-256h256zM0 0v512h512v-512h-512z" />
    <glyph glyph-name="odieresis" unicode="&#xf6;" 
d="M384 128v256h-256v-256h256zM0 0v512h512v-512h-512z" />
    <glyph glyph-name="divide" unicode="&#xf7;" horiz-adv-x="1152" 
d="M640 0v64h64v-64h-64zM352 64l-32 32l-32 -32h64zM1024 32v96h-32v-96h32zM0 0v160h64l96 -96v96h64v-96l96 96l96 -96v96h64v-128h128v-32h-192l-32 32h-128l-32 -32h-64l-96 96v-96h-64zM736 0v32h96v32h-96v96h160v-32h-96v-32h96v-96h-160zM928 0v160h160v-160h-160z
" />
    <glyph glyph-name="oslash" unicode="&#xf8;" 
d="M384 128v256h-256v-256h256zM0 0v512h512v-512h-512z" />
    <glyph glyph-name="ugrave" unicode="&#xf9;" 
d="M0 0v512h128v-384h192l64 64v320h128v-384l-128 -128h-384z" />
    <glyph glyph-name="uacute" unicode="&#xfa;" 
d="M0 0v512h128v-384h192l64 64v320h128v-384l-128 -128h-384z" />
    <glyph glyph-name="ucircumflex" unicode="&#xfb;" 
d="M0 0v512h128v-384h192l64 64v320h128v-384l-128 -128h-384z" />
    <glyph glyph-name="udieresis" unicode="&#xfc;" 
d="M0 0v512h128v-384h192l64 64v320h128v-384l-128 -128h-384z" />
    <glyph glyph-name="yacute" unicode="&#xfd;" horiz-adv-x="672" 
d="M192 -192v416l-192 192v192l256 -256l160 160h192l-288 -288v-288l-128 -128v0z" />
    <glyph glyph-name="thorn" unicode="&#xfe;" horiz-adv-x="1152" 
d="M640 0v64h64v-64h-64zM352 64l-32 32l-32 -32h64zM1024 32v96h-32v-96h32zM0 0v160h64l96 -96v96h64v-96l96 96l96 -96v96h64v-128h128v-32h-192l-32 32h-128l-32 -32h-64l-96 96v-96h-64zM736 0v32h96v32h-96v96h160v-32h-96v-32h96v-96h-160zM928 0v160h160v-160h-160z
" />
    <glyph glyph-name="ydieresis" unicode="&#xff;" horiz-adv-x="672" 
d="M192 -192v416l-192 192v192l256 -256l160 160h192l-288 -288v-288l-128 -128v0z" />
    <glyph glyph-name="Uring" unicode="&#x16e;" 
d="M0 0v512h128v-384h192l64 64v320h128v-384l-128 -128h-384z" />
    <glyph glyph-name="uring" unicode="&#x16f;" 
d="M0 0v512h128v-384h192l64 64v320h128v-384l-128 -128h-384z" />
    <glyph glyph-name="Ydieresis" unicode="&#x178;" horiz-adv-x="672" 
d="M192 -192v416l-192 192v192l256 -256l160 160h192l-288 -288v-288l-128 -128v0z" />
    <glyph glyph-name="uni1E9E" unicode="&#x1e9e;" horiz-adv-x="1152" 
d="M640 0v64h64v-64h-64zM352 64l-32 32l-32 -32h64zM1024 32v96h-32v-96h32zM0 0v160h64l96 -96v96h64v-96l96 96l96 -96v96h64v-128h128v-32h-192l-32 32h-128l-32 -32h-64l-96 96v-96h-64zM736 0v32h96v32h-96v96h160v-32h-96v-32h96v-96h-160zM928 0v160h160v-160h-160z
" />
    <glyph glyph-name="emdash" unicode="&#x2014;" horiz-adv-x="1152" 
d="M640 0v64h64v-64h-64zM352 64l-32 32l-32 -32h64zM1024 32v96h-32v-96h32zM0 0v160h64l96 -96v96h64v-96l96 96l96 -96v96h64v-128h128v-32h-192l-32 32h-128l-32 -32h-64l-96 96v-96h-64zM736 0v32h96v32h-96v96h160v-32h-96v-32h96v-96h-160zM928 0v160h160v-160h-160z
" />
    <glyph glyph-name="quoteleft" unicode="&#x2018;" horiz-adv-x="192" 
d="M0 384v128l128 128v-256h-128z" />
    <glyph glyph-name="quoteright" unicode="&#x2019;" horiz-adv-x="192" 
d="M0 384v256h128v-128l-128 -128v0z" />
    <glyph glyph-name="quotesinglbase" unicode="&#x201a;" horiz-adv-x="1152" 
d="M640 0v64h64v-64h-64zM352 64l-32 32l-32 -32h64zM1024 32v96h-32v-96h32zM0 0v160h64l96 -96v96h64v-96l96 96l96 -96v96h64v-128h128v-32h-192l-32 32h-128l-32 -32h-64l-96 96v-96h-64zM736 0v32h96v32h-96v96h160v-32h-96v-32h96v-96h-160zM928 0v160h160v-160h-160z
" />
    <glyph glyph-name="quotereversed" unicode="&#x201b;" horiz-adv-x="1152" 
d="M640 0v64h64v-64h-64zM352 64l-32 32l-32 -32h64zM1024 32v96h-32v-96h32zM0 0v160h64l96 -96v96h64v-96l96 96l96 -96v96h64v-128h128v-32h-192l-32 32h-128l-32 -32h-64l-96 96v-96h-64zM736 0v32h96v32h-96v96h160v-32h-96v-32h96v-96h-160zM928 0v160h160v-160h-160z
" />
    <glyph glyph-name="quotedblleft" unicode="&#x201c;" horiz-adv-x="352" 
d="M0 384v128l128 128v-256h-128zM160 384v128l128 128v-256h-128z" />
    <glyph glyph-name="quotedblright" unicode="&#x201d;" horiz-adv-x="352" 
d="M0 384v256h128v-128l-128 -128v0zM160 384v256h128v-128l-128 -128v0z" />
    <glyph glyph-name="quotedblbase" unicode="&#x201e;" horiz-adv-x="1152" 
d="M640 0v64h64v-64h-64zM352 64l-32 32l-32 -32h64zM1024 32v96h-32v-96h32zM0 0v160h64l96 -96v96h64v-96l96 96l96 -96v96h64v-128h128v-32h-192l-32 32h-128l-32 -32h-64l-96 96v-96h-64zM736 0v32h96v32h-96v96h160v-32h-96v-32h96v-96h-160zM928 0v160h160v-160h-160z
" />
    <glyph glyph-name="dagger" unicode="&#x2020;" horiz-adv-x="1152" 
d="M640 0v64h64v-64h-64zM352 64l-32 32l-32 -32h64zM1024 32v96h-32v-96h32zM0 0v160h64l96 -96v96h64v-96l96 96l96 -96v96h64v-128h128v-32h-192l-32 32h-128l-32 -32h-64l-96 96v-96h-64zM736 0v32h96v32h-96v96h160v-32h-96v-32h96v-96h-160zM928 0v160h160v-160h-160z
" />
    <glyph glyph-name="bullet" unicode="&#x2022;" horiz-adv-x="1152" 
d="M640 0v64h64v-64h-64zM352 64l-32 32l-32 -32h64zM1024 32v96h-32v-96h32zM0 0v160h64l96 -96v96h64v-96l96 96l96 -96v96h64v-128h128v-32h-192l-32 32h-128l-32 -32h-64l-96 96v-96h-64zM736 0v32h96v32h-96v96h160v-32h-96v-32h96v-96h-160zM928 0v160h160v-160h-160z
" />
    <glyph glyph-name="ellipsis" unicode="&#x2026;" 
d="M0 0v128h128v-128h-128zM192 0v128h128v-128h-128zM384 0v128h128v-128h-128z" />
    <glyph glyph-name="guilsinglleft" unicode="&#x2039;" horiz-adv-x="1152" 
d="M640 0v64h64v-64h-64zM352 64l-32 32l-32 -32h64zM1024 32v96h-32v-96h32zM0 0v160h64l96 -96v96h64v-96l96 96l96 -96v96h64v-128h128v-32h-192l-32 32h-128l-32 -32h-64l-96 96v-96h-64zM736 0v32h96v32h-96v96h160v-32h-96v-32h96v-96h-160zM928 0v160h160v-160h-160z
" />
    <glyph glyph-name="guilsinglright" unicode="&#x203a;" horiz-adv-x="1152" 
d="M640 0v64h64v-64h-64zM352 64l-32 32l-32 -32h64zM1024 32v96h-32v-96h32zM0 0v160h64l96 -96v96h64v-96l96 96l96 -96v96h64v-128h128v-32h-192l-32 32h-128l-32 -32h-64l-96 96v-96h-64zM736 0v32h96v32h-96v96h160v-32h-96v-32h96v-96h-160zM928 0v160h160v-160h-160z
" />
    <glyph glyph-name="Euro" unicode="&#x20ac;" 
d="M64 0v192h-64v128h64v192h448v-128h-320v-64h320v-128h-320v-64h320v-128h-448z" />
    <glyph glyph-name="trademark" unicode="&#x2122;" horiz-adv-x="512" 
d="M64 352v128h-64v32h256l64 -64l64 64h64v-160h-64v96l-64 -64l-64 64v-96h-64v128h-64v-128h-64z" />
    <glyph glyph-name="uniFB01" unicode="&#xfb01;" horiz-adv-x="1152" 
d="M640 0v64h64v-64h-64zM352 64l-32 32l-32 -32h64zM1024 32v96h-32v-96h32zM0 0v160h64l96 -96v96h64v-96l96 96l96 -96v96h64v-128h128v-32h-192l-32 32h-128l-32 -32h-64l-96 96v-96h-64zM736 0v32h96v32h-96v96h160v-32h-96v-32h96v-96h-160zM928 0v160h160v-160h-160z
" />
    <glyph glyph-name="uniFB02" unicode="&#xfb02;" horiz-adv-x="1152" 
d="M640 0v64h64v-64h-64zM352 64l-32 32l-32 -32h64zM1024 32v96h-32v-96h32zM0 0v160h64l96 -96v96h64v-96l96 96l96 -96v96h64v-128h128v-32h-192l-32 32h-128l-32 -32h-64l-96 96v-96h-64zM736 0v32h96v32h-96v96h160v-32h-96v-32h96v-96h-160zM928 0v160h160v-160h-160z
" />
  </font>
</defs>
</svg>
